solid OpenSCAD_Model
  facet normal 0 -0 -1
    outer loop
      vertex -1.9509 9.80785 0
      vertex 0 2 0
      vertex -3.82683 9.23878 0
    endloop
  endfacet
  facet normal -0 0 -1
    outer loop
      vertex 9.23878 -3.82683 0
      vertex 8.31468 -5.55569 0
      vertex 1.4142 -1.4142 0
    endloop
  endfacet
  facet normal -0 0 -1
    outer loop
      vertex 7.07106 7.07106 0
      vertex 1.4142 1.4142 0
      vertex 5.55569 8.31468 0
    endloop
  endfacet
  facet normal 0 -0 -1
    outer loop
      vertex 8.31468 5.55569 0
      vertex 9.23878 3.82683 0
      vertex 1.4142 1.4142 0
    endloop
  endfacet
  facet normal 0 0 -1
    outer loop
      vertex 2 0 0
      vertex 9.80785 1.9509 0
      vertex 10 0 0
    endloop
  endfacet
  facet normal 0 0 -1
    outer loop
      vertex 2 0 0
      vertex 10 0 0
      vertex 9.80785 -1.9509 0
    endloop
  endfacet
  facet normal 0 0 -1
    outer loop
      vertex 9.23878 3.82683 0
      vertex 2 0 0
      vertex 1.4142 1.4142 0
    endloop
  endfacet
  facet normal 0 -0 -1
    outer loop
      vertex 3.82683 9.23878 0
      vertex 5.55569 8.31468 0
      vertex 1.4142 1.4142 0
    endloop
  endfacet
  facet normal 0 0 -1
    outer loop
      vertex 9.23878 -3.82683 0
      vertex 1.4142 -1.4142 0
      vertex 2 0 0
    endloop
  endfacet
  facet normal 0 0 -1
    outer loop
      vertex 1.4142 1.4142 0
      vertex 0 2 0
      vertex 3.82683 9.23878 0
    endloop
  endfacet
  facet normal 0 -0 -1
    outer loop
      vertex -5.55569 8.31468 0
      vertex -1.4142 1.4142 0
      vertex -7.07106 7.07106 0
    endloop
  endfacet
  facet normal 0 0 -1
    outer loop
      vertex -5.55569 8.31468 0
      vertex -3.82683 9.23878 0
      vertex -1.4142 1.4142 0
    endloop
  endfacet
  facet normal 0 -0 -1
    outer loop
      vertex 0 10 0
      vertex 0 2 0
      vertex -1.9509 9.80785 0
    endloop
  endfacet
  facet normal -0 0 -1
    outer loop
      vertex 0 2 0
      vertex -1.4142 1.4142 0
      vertex -3.82683 9.23878 0
    endloop
  endfacet
  facet normal 0 0 -1
    outer loop
      vertex 0 2 0
      vertex 1.9509 9.80785 0
      vertex 3.82683 9.23878 0
    endloop
  endfacet
  facet normal 0 0 -1
    outer loop
      vertex -7.07106 -7.07106 0
      vertex -1.4142 -1.4142 0
      vertex -5.55569 -8.31468 0
    endloop
  endfacet
  facet normal 0 0 -1
    outer loop
      vertex -8.31468 -5.55569 0
      vertex -1.4142 -1.4142 0
      vertex -7.07106 -7.07106 0
    endloop
  endfacet
  facet normal -0 0 -1
    outer loop
      vertex -1.4142 1.4142 0
      vertex -2 0 0
      vertex -9.23878 3.82683 0
    endloop
  endfacet
  facet normal 0 0 -1
    outer loop
      vertex -9.80785 -1.9509 0
      vertex -2 0 0
      vertex -9.23878 -3.82683 0
    endloop
  endfacet
  facet normal 0 0 -1
    outer loop
      vertex -10 0 0
      vertex -2 0 0
      vertex -9.80785 -1.9509 0
    endloop
  endfacet
  facet normal 0 0 -1
    outer loop
      vertex -1.4142 -1.4142 0
      vertex -8.31468 -5.55569 0
      vertex -9.23878 -3.82683 0
    endloop
  endfacet
  facet normal 0 0 -1
    outer loop
      vertex -9.80785 1.9509 0
      vertex -9.23878 3.82683 0
      vertex -2 0 0
    endloop
  endfacet
  facet normal 0 0 -1
    outer loop
      vertex -9.23878 -3.82683 0
      vertex -2 0 0
      vertex -1.4142 -1.4142 0
    endloop
  endfacet
  facet normal -0 0 -1
    outer loop
      vertex 7.07106 -7.07106 0
      vertex 5.55569 -8.31468 0
      vertex 1.4142 -1.4142 0
    endloop
  endfacet
  facet normal 0 0 -1
    outer loop
      vertex -1.4142 -1.4142 0
      vertex -3.82683 -9.23878 0
      vertex -5.55569 -8.31468 0
    endloop
  endfacet
  facet normal 0 0 -1
    outer loop
      vertex 1.4142 -1.4142 0
      vertex 5.55569 -8.31468 0
      vertex 3.82683 -9.23878 0
    endloop
  endfacet
  facet normal 0 0 -1
    outer loop
      vertex -3.82683 -9.23878 0
      vertex 0 -2 0
      vertex -1.9509 -9.80785 0
    endloop
  endfacet
  facet normal 0 0 -1
    outer loop
      vertex 1.9509 -9.80785 0
      vertex 0 -2 0
      vertex 3.82683 -9.23878 0
    endloop
  endfacet
  facet normal 0 0 -1
    outer loop
      vertex 0 -10 0
      vertex -1.9509 -9.80785 0
      vertex 0 -2 0
    endloop
  endfacet
  facet normal -0 0 -1
    outer loop
      vertex 1.9509 -9.80785 0
      vertex 0 -10 0
      vertex 0 -2 0
    endloop
  endfacet
  facet normal 0 0 -1
    outer loop
      vertex -9.23878 3.82683 0
      vertex -8.31468 5.55569 0
      vertex -1.4142 1.4142 0
    endloop
  endfacet
  facet normal -0 0 -1
    outer loop
      vertex 0 -2 0
      vertex -3.82683 -9.23878 0
      vertex -1.4142 -1.4142 0
    endloop
  endfacet
  facet normal 0 0 -1
    outer loop
      vertex -10 0 0
      vertex -9.80785 1.9509 0
      vertex -2 0 0
    endloop
  endfacet
  facet normal 0 0 -1
    outer loop
      vertex -1.4142 1.4142 0
      vertex -8.31468 5.55569 0
      vertex -7.07106 7.07106 0
    endloop
  endfacet
  facet normal 0 0 -1
    outer loop
      vertex 0 10 0
      vertex 1.9509 9.80785 0
      vertex 0 2 0
    endloop
  endfacet
  facet normal 0 -0 -1
    outer loop
      vertex 7.07106 7.07106 0
      vertex 8.31468 5.55569 0
      vertex 1.4142 1.4142 0
    endloop
  endfacet
  facet normal 0 -0 -1
    outer loop
      vertex 9.23878 3.82683 0
      vertex 9.80785 1.9509 0
      vertex 2 0 0
    endloop
  endfacet
  facet normal 0 0 -1
    outer loop
      vertex 2 0 0
      vertex 9.80785 -1.9509 0
      vertex 9.23878 -3.82683 0
    endloop
  endfacet
  facet normal 0 0 -1
    outer loop
      vertex 0 -2 0
      vertex 1.4142 -1.4142 0
      vertex 3.82683 -9.23878 0
    endloop
  endfacet
  facet normal 0 0 -1
    outer loop
      vertex 1.4142 -1.4142 0
      vertex 8.31468 -5.55569 0
      vertex 7.07106 -7.07106 0
    endloop
  endfacet
  facet normal -0 0 1
    outer loop
      vertex -3.82683 9.23878 10
      vertex 0 2 10
      vertex -1.9509 9.80785 10
    endloop
  endfacet
  facet normal 0 0 1
    outer loop
      vertex 1.4142 -1.4142 10
      vertex 8.31468 -5.55569 10
      vertex 9.23878 -3.82683 10
    endloop
  endfacet
  facet normal 0 0 1
    outer loop
      vertex 5.55569 8.31468 10
      vertex 1.4142 1.4142 10
      vertex 7.07106 7.07106 10
    endloop
  endfacet
  facet normal 0 0 1
    outer loop
      vertex 1.4142 1.4142 10
      vertex 9.23878 3.82683 10
      vertex 8.31468 5.55569 10
    endloop
  endfacet
  facet normal 0 0 1
    outer loop
      vertex 10 0 10
      vertex 9.80785 1.9509 10
      vertex 2 0 10
    endloop
  endfacet
  facet normal 0 -0 1
    outer loop
      vertex 9.80785 -1.9509 10
      vertex 10 0 10
      vertex 2 0 10
    endloop
  endfacet
  facet normal -0 0 1
    outer loop
      vertex 1.4142 1.4142 10
      vertex 2 0 10
      vertex 9.23878 3.82683 10
    endloop
  endfacet
  facet normal 0 0 1
    outer loop
      vertex 1.4142 1.4142 10
      vertex 5.55569 8.31468 10
      vertex 3.82683 9.23878 10
    endloop
  endfacet
  facet normal 0 0 1
    outer loop
      vertex 2 0 10
      vertex 1.4142 -1.4142 10
      vertex 9.23878 -3.82683 10
    endloop
  endfacet
  facet normal 0 0 1
    outer loop
      vertex 3.82683 9.23878 10
      vertex 0 2 10
      vertex 1.4142 1.4142 10
    endloop
  endfacet
  facet normal -0 0 1
    outer loop
      vertex -7.07106 7.07106 10
      vertex -1.4142 1.4142 10
      vertex -5.55569 8.31468 10
    endloop
  endfacet
  facet normal 0 0 1
    outer loop
      vertex -1.4142 1.4142 10
      vertex -3.82683 9.23878 10
      vertex -5.55569 8.31468 10
    endloop
  endfacet
  facet normal -0 0 1
    outer loop
      vertex -1.9509 9.80785 10
      vertex 0 2 10
      vertex 0 10 10
    endloop
  endfacet
  facet normal 0 0 1
    outer loop
      vertex -3.82683 9.23878 10
      vertex -1.4142 1.4142 10
      vertex 0 2 10
    endloop
  endfacet
  facet normal 0 0 1
    outer loop
      vertex 3.82683 9.23878 10
      vertex 1.9509 9.80785 10
      vertex 0 2 10
    endloop
  endfacet
  facet normal 0 -0 1
    outer loop
      vertex -5.55569 -8.31468 10
      vertex -1.4142 -1.4142 10
      vertex -7.07106 -7.07106 10
    endloop
  endfacet
  facet normal 0 -0 1
    outer loop
      vertex -7.07106 -7.07106 10
      vertex -1.4142 -1.4142 10
      vertex -8.31468 -5.55569 10
    endloop
  endfacet
  facet normal 0 0 1
    outer loop
      vertex -9.23878 3.82683 10
      vertex -2 0 10
      vertex -1.4142 1.4142 10
    endloop
  endfacet
  facet normal 0 -0 1
    outer loop
      vertex -9.23878 -3.82683 10
      vertex -2 0 10
      vertex -9.80785 -1.9509 10
    endloop
  endfacet
  facet normal 0 -0 1
    outer loop
      vertex -9.80785 -1.9509 10
      vertex -2 0 10
      vertex -10 0 10
    endloop
  endfacet
  facet normal -0 0 1
    outer loop
      vertex -9.23878 -3.82683 10
      vertex -8.31468 -5.55569 10
      vertex -1.4142 -1.4142 10
    endloop
  endfacet
  facet normal 0 0 1
    outer loop
      vertex -2 0 10
      vertex -9.23878 3.82683 10
      vertex -9.80785 1.9509 10
    endloop
  endfacet
  facet normal 0 0 1
    outer loop
      vertex -1.4142 -1.4142 10
      vertex -2 0 10
      vertex -9.23878 -3.82683 10
    endloop
  endfacet
  facet normal 0 0 1
    outer loop
      vertex 1.4142 -1.4142 10
      vertex 5.55569 -8.31468 10
      vertex 7.07106 -7.07106 10
    endloop
  endfacet
  facet normal -0 0 1
    outer loop
      vertex -5.55569 -8.31468 10
      vertex -3.82683 -9.23878 10
      vertex -1.4142 -1.4142 10
    endloop
  endfacet
  facet normal 0 -0 1
    outer loop
      vertex 3.82683 -9.23878 10
      vertex 5.55569 -8.31468 10
      vertex 1.4142 -1.4142 10
    endloop
  endfacet
  facet normal 0 -0 1
    outer loop
      vertex -1.9509 -9.80785 10
      vertex 0 -2 10
      vertex -3.82683 -9.23878 10
    endloop
  endfacet
  facet normal 0 0 1
    outer loop
      vertex 3.82683 -9.23878 10
      vertex 0 -2 10
      vertex 1.9509 -9.80785 10
    endloop
  endfacet
  facet normal 0 0 1
    outer loop
      vertex 0 -2 10
      vertex -1.9509 -9.80785 10
      vertex 0 -10 10
    endloop
  endfacet
  facet normal 0 0 1
    outer loop
      vertex 0 -2 10
      vertex 0 -10 10
      vertex 1.9509 -9.80785 10
    endloop
  endfacet
  facet normal 0 0 1
    outer loop
      vertex -1.4142 1.4142 10
      vertex -8.31468 5.55569 10
      vertex -9.23878 3.82683 10
    endloop
  endfacet
  facet normal 0 0 1
    outer loop
      vertex -1.4142 -1.4142 10
      vertex -3.82683 -9.23878 10
      vertex 0 -2 10
    endloop
  endfacet
  facet normal 0 0 1
    outer loop
      vertex -2 0 10
      vertex -9.80785 1.9509 10
      vertex -10 0 10
    endloop
  endfacet
  facet normal 0 0 1
    outer loop
      vertex -7.07106 7.07106 10
      vertex -8.31468 5.55569 10
      vertex -1.4142 1.4142 10
    endloop
  endfacet
  facet normal 0 0 1
    outer loop
      vertex 0 2 10
      vertex 1.9509 9.80785 10
      vertex 0 10 10
    endloop
  endfacet
  facet normal 0 0 1
    outer loop
      vertex 1.4142 1.4142 10
      vertex 8.31468 5.55569 10
      vertex 7.07106 7.07106 10
    endloop
  endfacet
  facet normal 0 0 1
    outer loop
      vertex 2 0 10
      vertex 9.80785 1.9509 10
      vertex 9.23878 3.82683 10
    endloop
  endfacet
  facet normal 0 -0 1
    outer loop
      vertex 9.23878 -3.82683 10
      vertex 9.80785 -1.9509 10
      vertex 2 0 10
    endloop
  endfacet
  facet normal 0 0 1
    outer loop
      vertex 3.82683 -9.23878 10
      vertex 1.4142 -1.4142 10
      vertex 0 -2 10
    endloop
  endfacet
  facet normal 0 -0 1
    outer loop
      vertex 7.07106 -7.07106 10
      vertex 8.31468 -5.55569 10
      vertex 1.4142 -1.4142 10
    endloop
  endfacet
  facet normal 0.290286 -0.95694 0
    outer loop
      vertex 3.82683 -9.23878 0
      vertex 1.9509 -9.80785 10
      vertex 1.9509 -9.80785 0
    endloop
  endfacet
  facet normal 0.290286 -0.95694 0
    outer loop
      vertex 3.82683 -9.23878 0
      vertex 3.82683 -9.23878 10
      vertex 1.9509 -9.80785 10
    endloop
  endfacet
  facet normal 0.471398 -0.88192 0
    outer loop
      vertex 5.55569 -8.31468 0
      vertex 3.82683 -9.23878 10
      vertex 3.82683 -9.23878 0
    endloop
  endfacet
  facet normal 0.471398 -0.88192 0
    outer loop
      vertex 5.55569 -8.31468 0
      vertex 5.55569 -8.31468 10
      vertex 3.82683 -9.23878 10
    endloop
  endfacet
  facet normal 0.634391 -0.773012 0
    outer loop
      vertex 7.07106 -7.07106 0
      vertex 5.55569 -8.31468 10
      vertex 5.55569 -8.31468 0
    endloop
  endfacet
  facet normal 0.634391 -0.773012 0
    outer loop
      vertex 7.07106 -7.07106 0
      vertex 7.07106 -7.07106 10
      vertex 5.55569 -8.31468 10
    endloop
  endfacet
  facet normal 0.773012 -0.634391 0
    outer loop
      vertex 8.31468 -5.55569 0
      vertex 7.07106 -7.07106 10
      vertex 7.07106 -7.07106 0
    endloop
  endfacet
  facet normal 0.773012 -0.634391 0
    outer loop
      vertex 8.31468 -5.55569 0
      vertex 8.31468 -5.55569 10
      vertex 7.07106 -7.07106 10
    endloop
  endfacet
  facet normal 0.88192 -0.471398 0
    outer loop
      vertex 9.23878 -3.82683 0
      vertex 8.31468 -5.55569 10
      vertex 8.31468 -5.55569 0
    endloop
  endfacet
  facet normal 0.88192 -0.471398 0
    outer loop
      vertex 9.23878 -3.82683 0
      vertex 9.23878 -3.82683 10
      vertex 8.31468 -5.55569 10
    endloop
  endfacet
  facet normal 0.95694 -0.290286 0
    outer loop
      vertex 9.80785 -1.9509 0
      vertex 9.23878 -3.82683 10
      vertex 9.23878 -3.82683 0
    endloop
  endfacet
  facet normal 0.95694 -0.290286 0
    outer loop
      vertex 9.80785 -1.9509 0
      vertex 9.80785 -1.9509 10
      vertex 9.23878 -3.82683 10
    endloop
  endfacet
  facet normal 0.995184 -0.0980208 0
    outer loop
      vertex 10 0 0
      vertex 9.80785 -1.9509 10
      vertex 9.80785 -1.9509 0
    endloop
  endfacet
  facet normal 0.995184 -0.0980208 0
    outer loop
      vertex 10 0 0
      vertex 10 0 10
      vertex 9.80785 -1.9509 10
    endloop
  endfacet
  facet normal 0.995184 0.0980208 0
    outer loop
      vertex 9.80785 1.9509 0
      vertex 10 0 10
      vertex 10 0 0
    endloop
  endfacet
  facet normal 0.995184 0.0980208 -0
    outer loop
      vertex 9.80785 1.9509 0
      vertex 9.80785 1.9509 10
      vertex 10 0 10
    endloop
  endfacet
  facet normal 0.95694 0.290286 0
    outer loop
      vertex 9.23878 3.82683 0
      vertex 9.80785 1.9509 10
      vertex 9.80785 1.9509 0
    endloop
  endfacet
  facet normal 0.95694 0.290286 -0
    outer loop
      vertex 9.23878 3.82683 0
      vertex 9.23878 3.82683 10
      vertex 9.80785 1.9509 10
    endloop
  endfacet
  facet normal 0.88192 0.471398 0
    outer loop
      vertex 8.31468 5.55569 0
      vertex 9.23878 3.82683 10
      vertex 9.23878 3.82683 0
    endloop
  endfacet
  facet normal 0.88192 0.471398 -0
    outer loop
      vertex 8.31468 5.55569 0
      vertex 8.31468 5.55569 10
      vertex 9.23878 3.82683 10
    endloop
  endfacet
  facet normal 0.773012 0.634391 0
    outer loop
      vertex 7.07106 7.07106 0
      vertex 8.31468 5.55569 10
      vertex 8.31468 5.55569 0
    endloop
  endfacet
  facet normal 0.773012 0.634391 -0
    outer loop
      vertex 7.07106 7.07106 0
      vertex 7.07106 7.07106 10
      vertex 8.31468 5.55569 10
    endloop
  endfacet
  facet normal 0.634391 0.773012 0
    outer loop
      vertex 5.55569 8.31468 0
      vertex 7.07106 7.07106 10
      vertex 7.07106 7.07106 0
    endloop
  endfacet
  facet normal 0.634391 0.773012 -0
    outer loop
      vertex 5.55569 8.31468 0
      vertex 5.55569 8.31468 10
      vertex 7.07106 7.07106 10
    endloop
  endfacet
  facet normal 0.471398 0.88192 0
    outer loop
      vertex 3.82683 9.23878 0
      vertex 5.55569 8.31468 10
      vertex 5.55569 8.31468 0
    endloop
  endfacet
  facet normal 0.471398 0.88192 -0
    outer loop
      vertex 3.82683 9.23878 0
      vertex 3.82683 9.23878 10
      vertex 5.55569 8.31468 10
    endloop
  endfacet
  facet normal 0.290286 0.95694 0
    outer loop
      vertex 1.9509 9.80785 0
      vertex 3.82683 9.23878 10
      vertex 3.82683 9.23878 0
    endloop
  endfacet
  facet normal 0.290286 0.95694 -0
    outer loop
      vertex 1.9509 9.80785 0
      vertex 1.9509 9.80785 10
      vertex 3.82683 9.23878 10
    endloop
  endfacet
  facet normal 0.0980208 0.995184 0
    outer loop
      vertex 0 10 0
      vertex 1.9509 9.80785 10
      vertex 1.9509 9.80785 0
    endloop
  endfacet
  facet normal 0.0980208 0.995184 -0
    outer loop
      vertex 0 10 0
      vertex 0 10 10
      vertex 1.9509 9.80785 10
    endloop
  endfacet
  facet normal -0.0980208 0.995184 0
    outer loop
      vertex -1.9509 9.80785 0
      vertex 0 10 10
      vertex 0 10 0
    endloop
  endfacet
  facet normal -0.0980208 0.995184 0
    outer loop
      vertex -1.9509 9.80785 0
      vertex -1.9509 9.80785 10
      vertex 0 10 10
    endloop
  endfacet
  facet normal -0.290286 0.95694 0
    outer loop
      vertex -3.82683 9.23878 0
      vertex -1.9509 9.80785 10
      vertex -1.9509 9.80785 0
    endloop
  endfacet
  facet normal -0.290286 0.95694 0
    outer loop
      vertex -3.82683 9.23878 0
      vertex -3.82683 9.23878 10
      vertex -1.9509 9.80785 10
    endloop
  endfacet
  facet normal -0.471398 0.88192 0
    outer loop
      vertex -5.55569 8.31468 0
      vertex -3.82683 9.23878 10
      vertex -3.82683 9.23878 0
    endloop
  endfacet
  facet normal -0.471398 0.88192 0
    outer loop
      vertex -5.55569 8.31468 0
      vertex -5.55569 8.31468 10
      vertex -3.82683 9.23878 10
    endloop
  endfacet
  facet normal -0.634391 0.773012 0
    outer loop
      vertex -7.07106 7.07106 0
      vertex -5.55569 8.31468 10
      vertex -5.55569 8.31468 0
    endloop
  endfacet
  facet normal -0.634391 0.773012 0
    outer loop
      vertex -7.07106 7.07106 0
      vertex -7.07106 7.07106 10
      vertex -5.55569 8.31468 10
    endloop
  endfacet
  facet normal -0.773012 0.634391 0
    outer loop
      vertex -8.31468 5.55569 0
      vertex -7.07106 7.07106 10
      vertex -7.07106 7.07106 0
    endloop
  endfacet
  facet normal -0.773012 0.634391 0
    outer loop
      vertex -8.31468 5.55569 0
      vertex -8.31468 5.55569 10
      vertex -7.07106 7.07106 10
    endloop
  endfacet
  facet normal -0.88192 0.471398 0
    outer loop
      vertex -9.23878 3.82683 0
      vertex -8.31468 5.55569 10
      vertex -8.31468 5.55569 0
    endloop
  endfacet
  facet normal -0.88192 0.471398 0
    outer loop
      vertex -9.23878 3.82683 0
      vertex -9.23878 3.82683 10
      vertex -8.31468 5.55569 10
    endloop
  endfacet
  facet normal -0.95694 0.290286 0
    outer loop
      vertex -9.80785 1.9509 0
      vertex -9.23878 3.82683 10
      vertex -9.23878 3.82683 0
    endloop
  endfacet
  facet normal -0.95694 0.290286 0
    outer loop
      vertex -9.80785 1.9509 0
      vertex -9.80785 1.9509 10
      vertex -9.23878 3.82683 10
    endloop
  endfacet
  facet normal -0.995184 0.0980208 0
    outer loop
      vertex -10 0 0
      vertex -9.80785 1.9509 10
      vertex -9.80785 1.9509 0
    endloop
  endfacet
  facet normal -0.995184 0.0980208 0
    outer loop
      vertex -10 0 0
      vertex -10 0 10
      vertex -9.80785 1.9509 10
    endloop
  endfacet
  facet normal -0.995184 -0.0980208 0
    outer loop
      vertex -9.80785 -1.9509 0
      vertex -10 0 10
      vertex -10 0 0
    endloop
  endfacet
  facet normal -0.995184 -0.0980208 0
    outer loop
      vertex -9.80785 -1.9509 0
      vertex -9.80785 -1.9509 10
      vertex -10 0 10
    endloop
  endfacet
  facet normal -0.95694 -0.290286 0
    outer loop
      vertex -9.23878 -3.82683 0
      vertex -9.80785 -1.9509 10
      vertex -9.80785 -1.9509 0
    endloop
  endfacet
  facet normal -0.95694 -0.290286 0
    outer loop
      vertex -9.23878 -3.82683 0
      vertex -9.23878 -3.82683 10
      vertex -9.80785 -1.9509 10
    endloop
  endfacet
  facet normal -0.88192 -0.471398 0
    outer loop
      vertex -8.31468 -5.55569 0
      vertex -9.23878 -3.82683 10
      vertex -9.23878 -3.82683 0
    endloop
  endfacet
  facet normal -0.88192 -0.471398 0
    outer loop
      vertex -8.31468 -5.55569 0
      vertex -8.31468 -5.55569 10
      vertex -9.23878 -3.82683 10
    endloop
  endfacet
  facet normal -0.773012 -0.634391 0
    outer loop
      vertex -7.07106 -7.07106 0
      vertex -8.31468 -5.55569 10
      vertex -8.31468 -5.55569 0
    endloop
  endfacet
  facet normal -0.773012 -0.634391 0
    outer loop
      vertex -7.07106 -7.07106 0
      vertex -7.07106 -7.07106 10
      vertex -8.31468 -5.55569 10
    endloop
  endfacet
  facet normal -0.634391 -0.773012 0
    outer loop
      vertex -5.55569 -8.31468 0
      vertex -7.07106 -7.07106 10
      vertex -7.07106 -7.07106 0
    endloop
  endfacet
  facet normal -0.634391 -0.773012 0
    outer loop
      vertex -5.55569 -8.31468 0
      vertex -5.55569 -8.31468 10
      vertex -7.07106 -7.07106 10
    endloop
  endfacet
  facet normal -0.471398 -0.88192 0
    outer loop
      vertex -3.82683 -9.23878 0
      vertex -5.55569 -8.31468 10
      vertex -5.55569 -8.31468 0
    endloop
  endfacet
  facet normal -0.471398 -0.88192 0
    outer loop
      vertex -3.82683 -9.23878 0
      vertex -3.82683 -9.23878 10
      vertex -5.55569 -8.31468 10
    endloop
  endfacet
  facet normal -0.290286 -0.95694 0
    outer loop
      vertex -1.9509 -9.80785 0
      vertex -3.82683 -9.23878 10
      vertex -3.82683 -9.23878 0
    endloop
  endfacet
  facet normal -0.290286 -0.95694 0
    outer loop
      vertex -1.9509 -9.80785 0
      vertex -1.9509 -9.80785 10
      vertex -3.82683 -9.23878 10
    endloop
  endfacet
  facet normal -0.0980208 -0.995184 0
    outer loop
      vertex 0 -10 0
      vertex -1.9509 -9.80785 10
      vertex -1.9509 -9.80785 0
    endloop
  endfacet
  facet normal -0.0980208 -0.995184 0
    outer loop
      vertex 0 -10 0
      vertex 0 -10 10
      vertex -1.9509 -9.80785 10
    endloop
  endfacet
  facet normal 0.0980208 -0.995184 0
    outer loop
      vertex 1.9509 -9.80785 0
      vertex 0 -10 10
      vertex 0 -10 0
    endloop
  endfacet
  facet normal 0.0980208 -0.995184 0
    outer loop
      vertex 1.9509 -9.80785 0
      vertex 1.9509 -9.80785 10
      vertex 0 -10 10
    endloop
  endfacet
  facet normal 0.923875 0.382694 -0
    outer loop
      vertex -2 0 0
      vertex -2 0 10
      vertex -1.4142 -1.4142 0
    endloop
  endfacet
  facet normal 0.923875 0.382694 0
    outer loop
      vertex -1.4142 -1.4142 10
      vertex -1.4142 -1.4142 0
      vertex -2 0 10
    endloop
  endfacet
  facet normal 0.923875 -0.382694 0
    outer loop
      vertex -1.4142 1.4142 0
      vertex -1.4142 1.4142 10
      vertex -2 0 0
    endloop
  endfacet
  facet normal 0.923875 -0.382694 0
    outer loop
      vertex -2 0 10
      vertex -2 0 0
      vertex -1.4142 1.4142 10
    endloop
  endfacet
  facet normal 0.382694 -0.923875 0
    outer loop
      vertex 0 2 0
      vertex 0 2 10
      vertex -1.4142 1.4142 0
    endloop
  endfacet
  facet normal 0.382694 -0.923875 0
    outer loop
      vertex -1.4142 1.4142 10
      vertex -1.4142 1.4142 0
      vertex 0 2 10
    endloop
  endfacet
  facet normal -0.382694 -0.923875 0
    outer loop
      vertex 1.4142 1.4142 0
      vertex 1.4142 1.4142 10
      vertex 0 2 0
    endloop
  endfacet
  facet normal -0.382694 -0.923875 -0
    outer loop
      vertex 0 2 10
      vertex 0 2 0
      vertex 1.4142 1.4142 10
    endloop
  endfacet
  facet normal -0.923875 -0.382694 0
    outer loop
      vertex 2 0 0
      vertex 2 0 10
      vertex 1.4142 1.4142 0
    endloop
  endfacet
  facet normal -0.923875 -0.382694 -0
    outer loop
      vertex 1.4142 1.4142 10
      vertex 1.4142 1.4142 0
      vertex 2 0 10
    endloop
  endfacet
  facet normal -0.923875 0.382694 0
    outer loop
      vertex 1.4142 -1.4142 0
      vertex 1.4142 -1.4142 10
      vertex 2 0 0
    endloop
  endfacet
  facet normal -0.923875 0.382694 0
    outer loop
      vertex 2 0 10
      vertex 2 0 0
      vertex 1.4142 -1.4142 10
    endloop
  endfacet
  facet normal -0.382694 0.923875 0
    outer loop
      vertex 0 -2 0
      vertex 0 -2 10
      vertex 1.4142 -1.4142 0
    endloop
  endfacet
  facet normal -0.382694 0.923875 0
    outer loop
      vertex 1.4142 -1.4142 10
      vertex 1.4142 -1.4142 0
      vertex 0 -2 10
    endloop
  endfacet
  facet normal 0.382694 0.923875 -0
    outer loop
      vertex -1.4142 -1.4142 0
      vertex -1.4142 -1.4142 10
      vertex 0 -2 0
    endloop
  endfacet
  facet normal 0.382694 0.923875 0
    outer loop
      vertex 0 -2 10
      vertex 0 -2 0
      vertex -1.4142 -1.4142 10
    endloop
  endfacet
endsolid OpenSCAD_Model
