solid OpenSCAD_Model
  facet normal -1 0 0
    outer loop
      vertex 0 0 0
      vertex 0 40 12
      vertex 0 40 0
    endloop
  endfacet
  facet normal -1 -0 0
    outer loop
      vertex 0 40 12
      vertex 0 0 0
      vertex 0 0 12
    endloop
  endfacet
  facet normal 0 0 1
    outer loop
      vertex 40 40 12
      vertex 36 20 12
      vertex 40 0 12
    endloop
  endfacet
  facet normal 0 0 1
    outer loop
      vertex 40 40 12
      vertex 35.8847 21.1705 12
      vertex 36 20 12
    endloop
  endfacet
  facet normal 0 0 1
    outer loop
      vertex 40 40 12
      vertex 35.5433 22.2961 12
      vertex 35.8847 21.1705 12
    endloop
  endfacet
  facet normal 0 0 1
    outer loop
      vertex 40 40 12
      vertex 34.9888 23.3334 12
      vertex 35.5433 22.2961 12
    endloop
  endfacet
  facet normal 0 0 1
    outer loop
      vertex 40 40 12
      vertex 34.2426 24.2426 12
      vertex 34.9888 23.3334 12
    endloop
  endfacet
  facet normal 0 0 1
    outer loop
      vertex 40 40 12
      vertex 33.3334 24.9888 12
      vertex 34.2426 24.2426 12
    endloop
  endfacet
  facet normal 0 0 1
    outer loop
      vertex 40 40 12
      vertex 32.2961 25.5433 12
      vertex 33.3334 24.9888 12
    endloop
  endfacet
  facet normal 0 0 1
    outer loop
      vertex 40 40 12
      vertex 11.148 32.7716 12
      vertex 32.2961 25.5433 12
    endloop
  endfacet
  facet normal -0 0 1
    outer loop
      vertex 0 40 12
      vertex 11.148 32.7716 12
      vertex 40 40 12
    endloop
  endfacet
  facet normal 0 0 1
    outer loop
      vertex 11.148 32.7716 12
      vertex 0 40 12
      vertex 10.5853 32.9424 12
    endloop
  endfacet
  facet normal 0 0 1
    outer loop
      vertex 10.5853 32.9424 12
      vertex 0 40 12
      vertex 10 33 12
    endloop
  endfacet
  facet normal 0 0 1
    outer loop
      vertex 7 30 12
      vertex 0 40 12
      vertex 7 10 12
    endloop
  endfacet
  facet normal 0 0 1
    outer loop
      vertex 7.05764 30.5853 12
      vertex 0 40 12
      vertex 7 30 12
    endloop
  endfacet
  facet normal 0 0 1
    outer loop
      vertex 7.22836 31.148 12
      vertex 0 40 12
      vertex 7.05764 30.5853 12
    endloop
  endfacet
  facet normal 0 0 1
    outer loop
      vertex 7.50559 31.6667 12
      vertex 0 40 12
      vertex 7.22836 31.148 12
    endloop
  endfacet
  facet normal 0 0 1
    outer loop
      vertex 7.87868 32.1213 12
      vertex 0 40 12
      vertex 7.50559 31.6667 12
    endloop
  endfacet
  facet normal 0 0 1
    outer loop
      vertex 8.33329 32.4944 12
      vertex 0 40 12
      vertex 7.87868 32.1213 12
    endloop
  endfacet
  facet normal 0 0 1
    outer loop
      vertex 8.85195 32.7716 12
      vertex 0 40 12
      vertex 8.33329 32.4944 12
    endloop
  endfacet
  facet normal 0 0 1
    outer loop
      vertex 9.41473 32.9424 12
      vertex 0 40 12
      vertex 8.85195 32.7716 12
    endloop
  endfacet
  facet normal 0 0 1
    outer loop
      vertex 10 33 12
      vertex 0 40 12
      vertex 9.41473 32.9424 12
    endloop
  endfacet
  facet normal -0 0 1
    outer loop
      vertex 35.8847 18.8295 12
      vertex 40 0 12
      vertex 36 20 12
    endloop
  endfacet
  facet normal -0 0 1
    outer loop
      vertex 35.5433 17.7039 12
      vertex 40 0 12
      vertex 35.8847 18.8295 12
    endloop
  endfacet
  facet normal -0 0 1
    outer loop
      vertex 34.9888 16.6666 12
      vertex 40 0 12
      vertex 35.5433 17.7039 12
    endloop
  endfacet
  facet normal -0 0 1
    outer loop
      vertex 34.2426 15.7574 12
      vertex 40 0 12
      vertex 34.9888 16.6666 12
    endloop
  endfacet
  facet normal -0 0 1
    outer loop
      vertex 33.3334 15.0112 12
      vertex 40 0 12
      vertex 34.2426 15.7574 12
    endloop
  endfacet
  facet normal -0 0 1
    outer loop
      vertex 32.2961 14.4567 12
      vertex 40 0 12
      vertex 33.3334 15.0112 12
    endloop
  endfacet
  facet normal -0 0 1
    outer loop
      vertex 11.148 7.22836 12
      vertex 40 0 12
      vertex 32.2961 14.4567 12
    endloop
  endfacet
  facet normal 0 0 1
    outer loop
      vertex 0 0 12
      vertex 11.148 7.22836 12
      vertex 10.5853 7.05764 12
    endloop
  endfacet
  facet normal 0 0 1
    outer loop
      vertex 0 0 12
      vertex 10.5853 7.05764 12
      vertex 10 7 12
    endloop
  endfacet
  facet normal 0 0 1
    outer loop
      vertex 0 0 12
      vertex 10 7 12
      vertex 9.41473 7.05764 12
    endloop
  endfacet
  facet normal 0 0 1
    outer loop
      vertex 0 0 12
      vertex 7 10 12
      vertex 0 40 12
    endloop
  endfacet
  facet normal 0 0 1
    outer loop
      vertex 11.148 7.22836 12
      vertex 0 0 12
      vertex 40 0 12
    endloop
  endfacet
  facet normal 0 0 1
    outer loop
      vertex 8.85195 7.22836 12
      vertex 0 0 12
      vertex 9.41473 7.05764 12
    endloop
  endfacet
  facet normal 0 0 1
    outer loop
      vertex 8.33329 7.50559 12
      vertex 0 0 12
      vertex 8.85195 7.22836 12
    endloop
  endfacet
  facet normal 0 0 1
    outer loop
      vertex 7.87868 7.87868 12
      vertex 0 0 12
      vertex 8.33329 7.50559 12
    endloop
  endfacet
  facet normal 0 0 1
    outer loop
      vertex 7.50559 8.33329 12
      vertex 0 0 12
      vertex 7.87868 7.87868 12
    endloop
  endfacet
  facet normal 0 0 1
    outer loop
      vertex 7.22836 8.85195 12
      vertex 0 0 12
      vertex 7.50559 8.33329 12
    endloop
  endfacet
  facet normal 0 0 1
    outer loop
      vertex 7.05764 9.41473 12
      vertex 0 0 12
      vertex 7.22836 8.85195 12
    endloop
  endfacet
  facet normal 0 0 1
    outer loop
      vertex 7 10 12
      vertex 0 0 12
      vertex 7.05764 9.41473 12
    endloop
  endfacet
  facet normal 1 -0 0
    outer loop
      vertex 40 0 12
      vertex 40 40 0
      vertex 40 40 12
    endloop
  endfacet
  facet normal 1 0 0
    outer loop
      vertex 40 40 0
      vertex 40 0 12
      vertex 40 0 0
    endloop
  endfacet
  facet normal 0 1 -0
    outer loop
      vertex 40 40 0
      vertex 0 40 12
      vertex 40 40 12
    endloop
  endfacet
  facet normal 0 1 0
    outer loop
      vertex 0 40 12
      vertex 40 40 0
      vertex 0 40 0
    endloop
  endfacet
  facet normal 0 0 -1
    outer loop
      vertex 40 0 0
      vertex 30 20 0
      vertex 40 40 0
    endloop
  endfacet
  facet normal 0 0 -1
    outer loop
      vertex 40 0 0
      vertex 29.9424 19.4147 0
      vertex 30 20 0
    endloop
  endfacet
  facet normal 0 0 -1
    outer loop
      vertex 40 0 0
      vertex 29.7716 18.8519 0
      vertex 29.9424 19.4147 0
    endloop
  endfacet
  facet normal 0 0 -1
    outer loop
      vertex 40 0 0
      vertex 29.4944 18.3333 0
      vertex 29.7716 18.8519 0
    endloop
  endfacet
  facet normal 0 0 -1
    outer loop
      vertex 40 0 0
      vertex 29.1213 17.8787 0
      vertex 29.4944 18.3333 0
    endloop
  endfacet
  facet normal 0 0 -1
    outer loop
      vertex 40 0 0
      vertex 28.6667 17.5056 0
      vertex 29.1213 17.8787 0
    endloop
  endfacet
  facet normal 0 0 -1
    outer loop
      vertex 40 0 0
      vertex 28.148 17.2284 0
      vertex 28.6667 17.5056 0
    endloop
  endfacet
  facet normal 0 0 -1
    outer loop
      vertex 40 0 0
      vertex 27.5853 17.0576 0
      vertex 28.148 17.2284 0
    endloop
  endfacet
  facet normal 0 0 -1
    outer loop
      vertex 40 0 0
      vertex 27 17 0
      vertex 27.5853 17.0576 0
    endloop
  endfacet
  facet normal 0 0 -1
    outer loop
      vertex 40 0 0
      vertex 15 17 0
      vertex 27 17 0
    endloop
  endfacet
  facet normal 0 0 -1
    outer loop
      vertex 0 0 0
      vertex 15 17 0
      vertex 40 0 0
    endloop
  endfacet
  facet normal -0 0 -1
    outer loop
      vertex 15 17 0
      vertex 0 0 0
      vertex 14.4147 17.0576 0
    endloop
  endfacet
  facet normal -0 0 -1
    outer loop
      vertex 14.4147 17.0576 0
      vertex 0 0 0
      vertex 13.8519 17.2284 0
    endloop
  endfacet
  facet normal -0 0 -1
    outer loop
      vertex 12.0576 19.4147 0
      vertex 0 0 0
      vertex 12 20 0
    endloop
  endfacet
  facet normal -0 0 -1
    outer loop
      vertex 12.2284 18.8519 0
      vertex 0 0 0
      vertex 12.0576 19.4147 0
    endloop
  endfacet
  facet normal -0 0 -1
    outer loop
      vertex 12.5056 18.3333 0
      vertex 0 0 0
      vertex 12.2284 18.8519 0
    endloop
  endfacet
  facet normal -0 0 -1
    outer loop
      vertex 12.8787 17.8787 0
      vertex 0 0 0
      vertex 12.5056 18.3333 0
    endloop
  endfacet
  facet normal -0 0 -1
    outer loop
      vertex 13.3333 17.5056 0
      vertex 0 0 0
      vertex 12.8787 17.8787 0
    endloop
  endfacet
  facet normal -0 0 -1
    outer loop
      vertex 13.8519 17.2284 0
      vertex 0 0 0
      vertex 13.3333 17.5056 0
    endloop
  endfacet
  facet normal 0 0 -1
    outer loop
      vertex 29.9424 20.5853 0
      vertex 40 40 0
      vertex 30 20 0
    endloop
  endfacet
  facet normal 0 0 -1
    outer loop
      vertex 29.7716 21.148 0
      vertex 40 40 0
      vertex 29.9424 20.5853 0
    endloop
  endfacet
  facet normal 0 0 -1
    outer loop
      vertex 29.4944 21.6667 0
      vertex 40 40 0
      vertex 29.7716 21.148 0
    endloop
  endfacet
  facet normal 0 0 -1
    outer loop
      vertex 29.1213 22.1213 0
      vertex 40 40 0
      vertex 29.4944 21.6667 0
    endloop
  endfacet
  facet normal 0 0 -1
    outer loop
      vertex 28.6667 22.4944 0
      vertex 40 40 0
      vertex 29.1213 22.1213 0
    endloop
  endfacet
  facet normal 0 0 -1
    outer loop
      vertex 28.148 22.7716 0
      vertex 40 40 0
      vertex 28.6667 22.4944 0
    endloop
  endfacet
  facet normal 0 0 -1
    outer loop
      vertex 27.5853 22.9424 0
      vertex 40 40 0
      vertex 28.148 22.7716 0
    endloop
  endfacet
  facet normal 0 0 -1
    outer loop
      vertex 27 23 0
      vertex 40 40 0
      vertex 27.5853 22.9424 0
    endloop
  endfacet
  facet normal 0 0 -1
    outer loop
      vertex 15 23 0
      vertex 40 40 0
      vertex 27 23 0
    endloop
  endfacet
  facet normal 0 0 -1
    outer loop
      vertex 0 40 0
      vertex 15 23 0
      vertex 14.4147 22.9424 0
    endloop
  endfacet
  facet normal 0 0 -1
    outer loop
      vertex 0 40 0
      vertex 14.4147 22.9424 0
      vertex 13.8519 22.7716 0
    endloop
  endfacet
  facet normal 0 0 -1
    outer loop
      vertex 0 40 0
      vertex 13.8519 22.7716 0
      vertex 13.3333 22.4944 0
    endloop
  endfacet
  facet normal 0 0 -1
    outer loop
      vertex 0 40 0
      vertex 12 20 0
      vertex 0 0 0
    endloop
  endfacet
  facet normal 0 0 -1
    outer loop
      vertex 12 20 0
      vertex 0 40 0
      vertex 12.0576 20.5853 0
    endloop
  endfacet
  facet normal 0 0 -1
    outer loop
      vertex 12.0576 20.5853 0
      vertex 0 40 0
      vertex 12.2284 21.148 0
    endloop
  endfacet
  facet normal 0 0 -1
    outer loop
      vertex 15 23 0
      vertex 0 40 0
      vertex 40 40 0
    endloop
  endfacet
  facet normal 0 0 -1
    outer loop
      vertex 12.8787 22.1213 0
      vertex 0 40 0
      vertex 13.3333 22.4944 0
    endloop
  endfacet
  facet normal 0 0 -1
    outer loop
      vertex 12.5056 21.6667 0
      vertex 0 40 0
      vertex 12.8787 22.1213 0
    endloop
  endfacet
  facet normal 0 0 -1
    outer loop
      vertex 12.2284 21.148 0
      vertex 0 40 0
      vertex 12.5056 21.6667 0
    endloop
  endfacet
  facet normal 0 -1 0
    outer loop
      vertex 0 0 0
      vertex 40 0 12
      vertex 0 0 12
    endloop
  endfacet
  facet normal 0 -1 -0
    outer loop
      vertex 40 0 12
      vertex 0 0 0
      vertex 40 0 0
    endloop
  endfacet
  facet normal 0 0 1
    outer loop
      vertex 30 20 3
      vertex 36 20 3
      vertex 35.8847 21.1705 3
    endloop
  endfacet
  facet normal 0 0 1
    outer loop
      vertex 29.9424 20.5853 3
      vertex 35.8847 21.1705 3
      vertex 35.5433 22.2961 3
    endloop
  endfacet
  facet normal 0 0 1
    outer loop
      vertex 36 20 3
      vertex 30 20 3
      vertex 35.8847 18.8295 3
    endloop
  endfacet
  facet normal 0 0 1
    outer loop
      vertex 29.9424 20.5853 3
      vertex 35.5433 22.2961 3
      vertex 34.9888 23.3334 3
    endloop
  endfacet
  facet normal -0 0 1
    outer loop
      vertex 29.9424 19.4147 3
      vertex 35.8847 18.8295 3
      vertex 30 20 3
    endloop
  endfacet
  facet normal 0 0 1
    outer loop
      vertex 29.7716 21.148 3
      vertex 34.9888 23.3334 3
      vertex 34.2426 24.2426 3
    endloop
  endfacet
  facet normal 0 0 1
    outer loop
      vertex 35.8847 18.8295 3
      vertex 29.9424 19.4147 3
      vertex 35.5433 17.7039 3
    endloop
  endfacet
  facet normal 0 0 1
    outer loop
      vertex 29.7716 21.148 3
      vertex 34.2426 24.2426 3
      vertex 33.3334 24.9888 3
    endloop
  endfacet
  facet normal 0 0 1
    outer loop
      vertex 35.5433 17.7039 3
      vertex 29.9424 19.4147 3
      vertex 34.9888 16.6666 3
    endloop
  endfacet
  facet normal 0 0 1
    outer loop
      vertex 29.4944 21.6667 3
      vertex 33.3334 24.9888 3
      vertex 32.2961 25.5433 3
    endloop
  endfacet
  facet normal -0 0 1
    outer loop
      vertex 29.7716 18.8519 3
      vertex 34.9888 16.6666 3
      vertex 29.9424 19.4147 3
    endloop
  endfacet
  facet normal 0 0 1
    outer loop
      vertex 34.9888 16.6666 3
      vertex 29.7716 18.8519 3
      vertex 34.2426 15.7574 3
    endloop
  endfacet
  facet normal 0 0 1
    outer loop
      vertex 35.8847 21.1705 3
      vertex 29.9424 20.5853 3
      vertex 30 20 3
    endloop
  endfacet
  facet normal 0 0 1
    outer loop
      vertex 34.9888 23.3334 3
      vertex 29.7716 21.148 3
      vertex 29.9424 20.5853 3
    endloop
  endfacet
  facet normal 0 0 1
    outer loop
      vertex 33.3334 24.9888 3
      vertex 29.4944 21.6667 3
      vertex 29.7716 21.148 3
    endloop
  endfacet
  facet normal 0 0 1
    outer loop
      vertex 32.2961 25.5433 3
      vertex 29.1213 22.1213 3
      vertex 29.4944 21.6667 3
    endloop
  endfacet
  facet normal 0 0 1
    outer loop
      vertex 32.2961 25.5433 3
      vertex 28.6667 22.4944 3
      vertex 29.1213 22.1213 3
    endloop
  endfacet
  facet normal 0 0 1
    outer loop
      vertex 32.2961 25.5433 3
      vertex 28.148 22.7716 3
      vertex 28.6667 22.4944 3
    endloop
  endfacet
  facet normal 0 0 1
    outer loop
      vertex 32.2961 25.5433 3
      vertex 27.5853 22.9424 3
      vertex 28.148 22.7716 3
    endloop
  endfacet
  facet normal 0 0 1
    outer loop
      vertex 32.2961 25.5433 3
      vertex 27 23 3
      vertex 27.5853 22.9424 3
    endloop
  endfacet
  facet normal 0 0 1
    outer loop
      vertex 11.148 32.7716 3
      vertex 27 23 3
      vertex 32.2961 25.5433 3
    endloop
  endfacet
  facet normal 0 0 1
    outer loop
      vertex 27 23 3
      vertex 11.148 32.7716 3
      vertex 15 23 3
    endloop
  endfacet
  facet normal 0 0 1
    outer loop
      vertex 12.2284 21.148 3
      vertex 7 30 3
      vertex 12.0576 20.5853 3
    endloop
  endfacet
  facet normal 0 0 1
    outer loop
      vertex 12.5056 21.6667 3
      vertex 7 30 3
      vertex 12.2284 21.148 3
    endloop
  endfacet
  facet normal 0 0 1
    outer loop
      vertex 12.8787 22.1213 3
      vertex 7 30 3
      vertex 12.5056 21.6667 3
    endloop
  endfacet
  facet normal 0 0 1
    outer loop
      vertex 13.3333 22.4944 3
      vertex 7 30 3
      vertex 12.8787 22.1213 3
    endloop
  endfacet
  facet normal 0 0 1
    outer loop
      vertex 13.8519 22.7716 3
      vertex 7 30 3
      vertex 13.3333 22.4944 3
    endloop
  endfacet
  facet normal -0 0 1
    outer loop
      vertex 7 30 3
      vertex 13.8519 22.7716 3
      vertex 11.148 32.7716 3
    endloop
  endfacet
  facet normal 0 0 1
    outer loop
      vertex 14.4147 22.9424 3
      vertex 11.148 32.7716 3
      vertex 13.8519 22.7716 3
    endloop
  endfacet
  facet normal 0 0 1
    outer loop
      vertex 15 23 3
      vertex 11.148 32.7716 3
      vertex 14.4147 22.9424 3
    endloop
  endfacet
  facet normal 0 0 1
    outer loop
      vertex 34.2426 15.7574 3
      vertex 29.7716 18.8519 3
      vertex 33.3334 15.0112 3
    endloop
  endfacet
  facet normal -0 0 1
    outer loop
      vertex 29.4944 18.3333 3
      vertex 33.3334 15.0112 3
      vertex 29.7716 18.8519 3
    endloop
  endfacet
  facet normal 0 0 1
    outer loop
      vertex 33.3334 15.0112 3
      vertex 29.4944 18.3333 3
      vertex 32.2961 14.4567 3
    endloop
  endfacet
  facet normal -0 0 1
    outer loop
      vertex 29.1213 17.8787 3
      vertex 32.2961 14.4567 3
      vertex 29.4944 18.3333 3
    endloop
  endfacet
  facet normal -0 0 1
    outer loop
      vertex 28.6667 17.5056 3
      vertex 32.2961 14.4567 3
      vertex 29.1213 17.8787 3
    endloop
  endfacet
  facet normal -0 0 1
    outer loop
      vertex 28.148 17.2284 3
      vertex 32.2961 14.4567 3
      vertex 28.6667 17.5056 3
    endloop
  endfacet
  facet normal -0 0 1
    outer loop
      vertex 27.5853 17.0576 3
      vertex 32.2961 14.4567 3
      vertex 28.148 17.2284 3
    endloop
  endfacet
  facet normal -0 0 1
    outer loop
      vertex 27 17 3
      vertex 32.2961 14.4567 3
      vertex 27.5853 17.0576 3
    endloop
  endfacet
  facet normal 0 0 1
    outer loop
      vertex 11.148 7.22836 3
      vertex 27 17 3
      vertex 15 17 3
    endloop
  endfacet
  facet normal 0 0 1
    outer loop
      vertex 11.148 7.22836 3
      vertex 15 17 3
      vertex 14.4147 17.0576 3
    endloop
  endfacet
  facet normal 0 0 1
    outer loop
      vertex 27 17 3
      vertex 11.148 7.22836 3
      vertex 32.2961 14.4567 3
    endloop
  endfacet
  facet normal 0 0 1
    outer loop
      vertex 13.8519 17.2284 3
      vertex 11.148 7.22836 3
      vertex 14.4147 17.0576 3
    endloop
  endfacet
  facet normal 0 0 1
    outer loop
      vertex 7 10 3
      vertex 13.8519 17.2284 3
      vertex 13.3333 17.5056 3
    endloop
  endfacet
  facet normal 0 0 1
    outer loop
      vertex 7 10 3
      vertex 13.3333 17.5056 3
      vertex 12.8787 17.8787 3
    endloop
  endfacet
  facet normal 0 0 1
    outer loop
      vertex 7 10 3
      vertex 12.8787 17.8787 3
      vertex 12.5056 18.3333 3
    endloop
  endfacet
  facet normal 0 0 1
    outer loop
      vertex 7 10 3
      vertex 12.5056 18.3333 3
      vertex 12.2284 18.8519 3
    endloop
  endfacet
  facet normal 0 0 1
    outer loop
      vertex 7 10 3
      vertex 12.2284 18.8519 3
      vertex 12.0576 19.4147 3
    endloop
  endfacet
  facet normal 0 0 1
    outer loop
      vertex 7 10 3
      vertex 12.0576 19.4147 3
      vertex 12 20 3
    endloop
  endfacet
  facet normal 0 0 1
    outer loop
      vertex 12.0576 20.5853 3
      vertex 7 30 3
      vertex 12 20 3
    endloop
  endfacet
  facet normal 0 0 1
    outer loop
      vertex 7 30 3
      vertex 11.148 32.7716 3
      vertex 10.5853 32.9424 3
    endloop
  endfacet
  facet normal 0 0 1
    outer loop
      vertex 7 10 3
      vertex 12 20 3
      vertex 7 30 3
    endloop
  endfacet
  facet normal 0 0 1
    outer loop
      vertex 7 30 3
      vertex 10.5853 32.9424 3
      vertex 10 33 3
    endloop
  endfacet
  facet normal 0 0 1
    outer loop
      vertex 13.8519 17.2284 3
      vertex 7 10 3
      vertex 11.148 7.22836 3
    endloop
  endfacet
  facet normal 0 0 1
    outer loop
      vertex 7 30 3
      vertex 10 33 3
      vertex 9.41473 32.9424 3
    endloop
  endfacet
  facet normal 0 0 1
    outer loop
      vertex 11.148 7.22836 3
      vertex 7 10 3
      vertex 10.5853 7.05764 3
    endloop
  endfacet
  facet normal 0 0 1
    outer loop
      vertex 7 30 3
      vertex 9.41473 32.9424 3
      vertex 8.85195 32.7716 3
    endloop
  endfacet
  facet normal 0 0 1
    outer loop
      vertex 10.5853 7.05764 3
      vertex 7 10 3
      vertex 10 7 3
    endloop
  endfacet
  facet normal 0 0 1
    outer loop
      vertex 7 30 3
      vertex 8.85195 32.7716 3
      vertex 8.33329 32.4944 3
    endloop
  endfacet
  facet normal 0 0 1
    outer loop
      vertex 10 7 3
      vertex 7 10 3
      vertex 9.41473 7.05764 3
    endloop
  endfacet
  facet normal 0 0 1
    outer loop
      vertex 7 30 3
      vertex 8.33329 32.4944 3
      vertex 7.87868 32.1213 3
    endloop
  endfacet
  facet normal 0 0 1
    outer loop
      vertex 9.41473 7.05764 3
      vertex 7 10 3
      vertex 8.85195 7.22836 3
    endloop
  endfacet
  facet normal 0 0 1
    outer loop
      vertex 7 30 3
      vertex 7.87868 32.1213 3
      vertex 7.50559 31.6667 3
    endloop
  endfacet
  facet normal 0 0 1
    outer loop
      vertex 8.85195 7.22836 3
      vertex 7 10 3
      vertex 8.33329 7.50559 3
    endloop
  endfacet
  facet normal 0 0 1
    outer loop
      vertex 7 30 3
      vertex 7.50559 31.6667 3
      vertex 7.22836 31.148 3
    endloop
  endfacet
  facet normal 0 0 1
    outer loop
      vertex 8.33329 7.50559 3
      vertex 7 10 3
      vertex 7.87868 7.87868 3
    endloop
  endfacet
  facet normal 0 0 1
    outer loop
      vertex 7 30 3
      vertex 7.22836 31.148 3
      vertex 7.05764 30.5853 3
    endloop
  endfacet
  facet normal 0 0 1
    outer loop
      vertex 7.87868 7.87868 3
      vertex 7 10 3
      vertex 7.50559 8.33329 3
    endloop
  endfacet
  facet normal 0 0 1
    outer loop
      vertex 7.50559 8.33329 3
      vertex 7 10 3
      vertex 7.22836 8.85195 3
    endloop
  endfacet
  facet normal 0 0 1
    outer loop
      vertex 7.22836 8.85195 3
      vertex 7 10 3
      vertex 7.05764 9.41473 3
    endloop
  endfacet
  facet normal 0.95694 0.290285 0
    outer loop
      vertex 7.22836 8.85195 12
      vertex 7.05764 9.41473 3
      vertex 7.05764 9.41473 12
    endloop
  endfacet
  facet normal 0.95694 0.290285 0
    outer loop
      vertex 7.05764 9.41473 3
      vertex 7.22836 8.85195 12
      vertex 7.22836 8.85195 3
    endloop
  endfacet
  facet normal 1 -0 0
    outer loop
      vertex 7 10 12
      vertex 7 30 3
      vertex 7 30 12
    endloop
  endfacet
  facet normal 1 0 0
    outer loop
      vertex 7 30 3
      vertex 7 10 12
      vertex 7 10 3
    endloop
  endfacet
  facet normal -0.995185 -0.0980167 0
    outer loop
      vertex 36 20 3
      vertex 35.8847 21.1705 12
      vertex 35.8847 21.1705 3
    endloop
  endfacet
  facet normal -0.995185 -0.0980167 0
    outer loop
      vertex 35.8847 21.1705 12
      vertex 36 20 3
      vertex 36 20 12
    endloop
  endfacet
  facet normal 0.995185 0.0980165 0
    outer loop
      vertex 7.05764 9.41473 12
      vertex 7 10 3
      vertex 7 10 12
    endloop
  endfacet
  facet normal 0.995185 0.0980165 0
    outer loop
      vertex 7 10 3
      vertex 7.05764 9.41473 12
      vertex 7.05764 9.41473 3
    endloop
  endfacet
  facet normal 0.290288 -0.956939 0
    outer loop
      vertex 8.85195 32.7716 3
      vertex 9.41473 32.9424 12
      vertex 8.85195 32.7716 12
    endloop
  endfacet
  facet normal 0.290288 -0.956939 0
    outer loop
      vertex 9.41473 32.9424 12
      vertex 8.85195 32.7716 3
      vertex 9.41473 32.9424 3
    endloop
  endfacet
  facet normal -0.471398 -0.881921 0
    outer loop
      vertex 32.2961 25.5433 3
      vertex 33.3334 24.9888 12
      vertex 32.2961 25.5433 12
    endloop
  endfacet
  facet normal -0.471398 -0.881921 -0
    outer loop
      vertex 33.3334 24.9888 12
      vertex 32.2961 25.5433 3
      vertex 33.3334 24.9888 3
    endloop
  endfacet
  facet normal -0.323427 -0.946253 0
    outer loop
      vertex 11.148 32.7716 3
      vertex 32.2961 25.5433 12
      vertex 11.148 32.7716 12
    endloop
  endfacet
  facet normal -0.323427 -0.946253 -0
    outer loop
      vertex 32.2961 25.5433 12
      vertex 11.148 32.7716 3
      vertex 32.2961 25.5433 3
    endloop
  endfacet
  facet normal 0.995185 -0.0980169 0
    outer loop
      vertex 7 30 12
      vertex 7.05764 30.5853 3
      vertex 7.05764 30.5853 12
    endloop
  endfacet
  facet normal 0.995185 -0.0980169 0
    outer loop
      vertex 7.05764 30.5853 3
      vertex 7 30 12
      vertex 7 30 3
    endloop
  endfacet
  facet normal -0.290285 0.95694 0
    outer loop
      vertex 11.148 7.22836 3
      vertex 10.5853 7.05764 12
      vertex 11.148 7.22836 12
    endloop
  endfacet
  facet normal -0.290285 0.95694 0
    outer loop
      vertex 10.5853 7.05764 12
      vertex 11.148 7.22836 3
      vertex 10.5853 7.05764 3
    endloop
  endfacet
  facet normal -0.773013 -0.634391 0
    outer loop
      vertex 34.9888 23.3334 3
      vertex 34.2426 24.2426 12
      vertex 34.2426 24.2426 3
    endloop
  endfacet
  facet normal -0.773013 -0.634391 0
    outer loop
      vertex 34.2426 24.2426 12
      vertex 34.9888 23.3334 3
      vertex 34.9888 23.3334 12
    endloop
  endfacet
  facet normal -0.634392 -0.773012 0
    outer loop
      vertex 33.3334 24.9888 3
      vertex 34.2426 24.2426 12
      vertex 33.3334 24.9888 12
    endloop
  endfacet
  facet normal -0.634392 -0.773012 -0
    outer loop
      vertex 34.2426 24.2426 12
      vertex 33.3334 24.9888 3
      vertex 34.2426 24.2426 3
    endloop
  endfacet
  facet normal 0.77301 -0.634394 0
    outer loop
      vertex 7.50559 31.6667 12
      vertex 7.87868 32.1213 3
      vertex 7.87868 32.1213 12
    endloop
  endfacet
  facet normal 0.77301 -0.634394 0
    outer loop
      vertex 7.87868 32.1213 3
      vertex 7.50559 31.6667 12
      vertex 7.50559 31.6667 3
    endloop
  endfacet
  facet normal 0.471396 -0.881922 0
    outer loop
      vertex 8.33329 32.4944 3
      vertex 8.85195 32.7716 12
      vertex 8.33329 32.4944 12
    endloop
  endfacet
  facet normal 0.471396 -0.881922 0
    outer loop
      vertex 8.85195 32.7716 12
      vertex 8.33329 32.4944 3
      vertex 8.85195 32.7716 3
    endloop
  endfacet
  facet normal -0.471397 0.881921 0
    outer loop
      vertex 33.3334 15.0112 3
      vertex 32.2961 14.4567 12
      vertex 33.3334 15.0112 12
    endloop
  endfacet
  facet normal -0.471397 0.881921 0
    outer loop
      vertex 32.2961 14.4567 12
      vertex 33.3334 15.0112 3
      vertex 32.2961 14.4567 3
    endloop
  endfacet
  facet normal -0.773012 0.634392 0
    outer loop
      vertex 34.2426 15.7574 3
      vertex 34.9888 16.6666 12
      vertex 34.9888 16.6666 3
    endloop
  endfacet
  facet normal -0.773012 0.634392 0
    outer loop
      vertex 34.9888 16.6666 12
      vertex 34.2426 15.7574 3
      vertex 34.2426 15.7574 12
    endloop
  endfacet
  facet normal -0.88192 0.471399 0
    outer loop
      vertex 34.9888 16.6666 3
      vertex 35.5433 17.7039 12
      vertex 35.5433 17.7039 3
    endloop
  endfacet
  facet normal -0.88192 0.471399 0
    outer loop
      vertex 35.5433 17.7039 12
      vertex 34.9888 16.6666 3
      vertex 34.9888 16.6666 12
    endloop
  endfacet
  facet normal -0.995185 0.0980165 0
    outer loop
      vertex 35.8847 18.8295 3
      vertex 36 20 12
      vertex 36 20 3
    endloop
  endfacet
  facet normal -0.995185 0.0980165 0
    outer loop
      vertex 36 20 12
      vertex 35.8847 18.8295 3
      vertex 35.8847 18.8295 12
    endloop
  endfacet
  facet normal -0.323427 0.946253 0
    outer loop
      vertex 32.2961 14.4567 3
      vertex 11.148 7.22836 12
      vertex 32.2961 14.4567 12
    endloop
  endfacet
  facet normal -0.323427 0.946253 0
    outer loop
      vertex 11.148 7.22836 12
      vertex 32.2961 14.4567 3
      vertex 11.148 7.22836 3
    endloop
  endfacet
  facet normal 0.881922 0.471396 0
    outer loop
      vertex 7.50559 8.33329 12
      vertex 7.22836 8.85195 3
      vertex 7.22836 8.85195 12
    endloop
  endfacet
  facet normal 0.881922 0.471396 0
    outer loop
      vertex 7.22836 8.85195 3
      vertex 7.50559 8.33329 12
      vertex 7.50559 8.33329 3
    endloop
  endfacet
  facet normal -0.88192 -0.471399 0
    outer loop
      vertex 35.5433 22.2961 3
      vertex 34.9888 23.3334 12
      vertex 34.9888 23.3334 3
    endloop
  endfacet
  facet normal -0.88192 -0.471399 0
    outer loop
      vertex 34.9888 23.3334 12
      vertex 35.5433 22.2961 3
      vertex 35.5433 22.2961 12
    endloop
  endfacet
  facet normal -0.95694 -0.290285 0
    outer loop
      vertex 35.8847 21.1705 3
      vertex 35.5433 22.2961 12
      vertex 35.5433 22.2961 3
    endloop
  endfacet
  facet normal -0.95694 -0.290285 0
    outer loop
      vertex 35.5433 22.2961 12
      vertex 35.8847 21.1705 3
      vertex 35.8847 21.1705 12
    endloop
  endfacet
  facet normal -0.0980167 -0.995185 0
    outer loop
      vertex 10 33 3
      vertex 10.5853 32.9424 12
      vertex 10 33 12
    endloop
  endfacet
  facet normal -0.0980167 -0.995185 -0
    outer loop
      vertex 10.5853 32.9424 12
      vertex 10 33 3
      vertex 10.5853 32.9424 3
    endloop
  endfacet
  facet normal -0.290288 -0.956939 0
    outer loop
      vertex 10.5853 32.9424 3
      vertex 11.148 32.7716 12
      vertex 10.5853 32.9424 12
    endloop
  endfacet
  facet normal -0.290288 -0.956939 -0
    outer loop
      vertex 11.148 32.7716 12
      vertex 10.5853 32.9424 3
      vertex 11.148 32.7716 3
    endloop
  endfacet
  facet normal 0.0980165 -0.995185 0
    outer loop
      vertex 9.41473 32.9424 3
      vertex 10 33 12
      vertex 9.41473 32.9424 12
    endloop
  endfacet
  facet normal 0.0980165 -0.995185 0
    outer loop
      vertex 10 33 12
      vertex 9.41473 32.9424 3
      vertex 10 33 3
    endloop
  endfacet
  facet normal 0.634393 -0.77301 0
    outer loop
      vertex 7.87868 32.1213 3
      vertex 8.33329 32.4944 12
      vertex 7.87868 32.1213 12
    endloop
  endfacet
  facet normal 0.634393 -0.77301 0
    outer loop
      vertex 8.33329 32.4944 12
      vertex 7.87868 32.1213 3
      vertex 8.33329 32.4944 3
    endloop
  endfacet
  facet normal 0.95694 -0.290285 0
    outer loop
      vertex 7.05764 30.5853 12
      vertex 7.22836 31.148 3
      vertex 7.22836 31.148 12
    endloop
  endfacet
  facet normal 0.95694 -0.290285 0
    outer loop
      vertex 7.22836 31.148 3
      vertex 7.05764 30.5853 12
      vertex 7.05764 30.5853 3
    endloop
  endfacet
  facet normal 0.881922 -0.471395 0
    outer loop
      vertex 7.22836 31.148 12
      vertex 7.50559 31.6667 3
      vertex 7.50559 31.6667 12
    endloop
  endfacet
  facet normal 0.881922 -0.471395 0
    outer loop
      vertex 7.50559 31.6667 3
      vertex 7.22836 31.148 12
      vertex 7.22836 31.148 3
    endloop
  endfacet
  facet normal -0.634392 0.773011 0
    outer loop
      vertex 34.2426 15.7574 3
      vertex 33.3334 15.0112 12
      vertex 34.2426 15.7574 12
    endloop
  endfacet
  facet normal -0.634392 0.773011 0
    outer loop
      vertex 33.3334 15.0112 12
      vertex 34.2426 15.7574 3
      vertex 33.3334 15.0112 3
    endloop
  endfacet
  facet normal -0.95694 0.290285 0
    outer loop
      vertex 35.5433 17.7039 3
      vertex 35.8847 18.8295 12
      vertex 35.8847 18.8295 3
    endloop
  endfacet
  facet normal -0.95694 0.290285 0
    outer loop
      vertex 35.8847 18.8295 12
      vertex 35.5433 17.7039 3
      vertex 35.5433 17.7039 12
    endloop
  endfacet
  facet normal 0.471396 0.881922 -0
    outer loop
      vertex 8.85195 7.22836 3
      vertex 8.33329 7.50559 12
      vertex 8.85195 7.22836 12
    endloop
  endfacet
  facet normal 0.471396 0.881922 0
    outer loop
      vertex 8.33329 7.50559 12
      vertex 8.85195 7.22836 3
      vertex 8.33329 7.50559 3
    endloop
  endfacet
  facet normal 0.0980165 0.995185 -0
    outer loop
      vertex 10 7 3
      vertex 9.41473 7.05764 12
      vertex 10 7 12
    endloop
  endfacet
  facet normal 0.0980165 0.995185 0
    outer loop
      vertex 9.41473 7.05764 12
      vertex 10 7 3
      vertex 9.41473 7.05764 3
    endloop
  endfacet
  facet normal 0.77301 0.634393 0
    outer loop
      vertex 7.87868 7.87868 12
      vertex 7.50559 8.33329 3
      vertex 7.50559 8.33329 12
    endloop
  endfacet
  facet normal 0.77301 0.634393 0
    outer loop
      vertex 7.50559 8.33329 3
      vertex 7.87868 7.87868 12
      vertex 7.87868 7.87868 3
    endloop
  endfacet
  facet normal 0.290285 0.95694 -0
    outer loop
      vertex 9.41473 7.05764 3
      vertex 8.85195 7.22836 12
      vertex 9.41473 7.05764 12
    endloop
  endfacet
  facet normal 0.290285 0.95694 0
    outer loop
      vertex 8.85195 7.22836 12
      vertex 9.41473 7.05764 3
      vertex 8.85195 7.22836 3
    endloop
  endfacet
  facet normal -0.0980167 0.995185 0
    outer loop
      vertex 10.5853 7.05764 3
      vertex 10 7 12
      vertex 10.5853 7.05764 12
    endloop
  endfacet
  facet normal -0.0980167 0.995185 0
    outer loop
      vertex 10 7 12
      vertex 10.5853 7.05764 3
      vertex 10 7 3
    endloop
  endfacet
  facet normal 0.634393 0.77301 -0
    outer loop
      vertex 8.33329 7.50559 3
      vertex 7.87868 7.87868 12
      vertex 8.33329 7.50559 12
    endloop
  endfacet
  facet normal 0.634393 0.77301 0
    outer loop
      vertex 7.87868 7.87868 12
      vertex 8.33329 7.50559 3
      vertex 7.87868 7.87868 3
    endloop
  endfacet
  facet normal 0.290288 -0.956939 0
    outer loop
      vertex 13.8519 22.7716 0
      vertex 14.4147 22.9424 3
      vertex 13.8519 22.7716 3
    endloop
  endfacet
  facet normal 0.290288 -0.956939 0
    outer loop
      vertex 14.4147 22.9424 3
      vertex 13.8519 22.7716 0
      vertex 14.4147 22.9424 0
    endloop
  endfacet
  facet normal 0.995185 -0.0980169 0
    outer loop
      vertex 12 20 3
      vertex 12.0576 20.5853 0
      vertex 12.0576 20.5853 3
    endloop
  endfacet
  facet normal 0.995185 -0.0980169 0
    outer loop
      vertex 12.0576 20.5853 0
      vertex 12 20 3
      vertex 12 20 0
    endloop
  endfacet
  facet normal 0.290285 0.95694 -0
    outer loop
      vertex 14.4147 17.0576 0
      vertex 13.8519 17.2284 3
      vertex 14.4147 17.0576 3
    endloop
  endfacet
  facet normal 0.290285 0.95694 0
    outer loop
      vertex 13.8519 17.2284 3
      vertex 14.4147 17.0576 0
      vertex 13.8519 17.2284 0
    endloop
  endfacet
  facet normal 0.77301 -0.634394 0
    outer loop
      vertex 12.5056 21.6667 3
      vertex 12.8787 22.1213 0
      vertex 12.8787 22.1213 3
    endloop
  endfacet
  facet normal 0.77301 -0.634394 0
    outer loop
      vertex 12.8787 22.1213 0
      vertex 12.5056 21.6667 3
      vertex 12.5056 21.6667 0
    endloop
  endfacet
  facet normal 0.995185 0.0980165 0
    outer loop
      vertex 12.0576 19.4147 3
      vertex 12 20 0
      vertex 12 20 3
    endloop
  endfacet
  facet normal 0.995185 0.0980165 0
    outer loop
      vertex 12 20 0
      vertex 12.0576 19.4147 3
      vertex 12.0576 19.4147 0
    endloop
  endfacet
  facet normal 0.471396 -0.881922 0
    outer loop
      vertex 13.3333 22.4944 0
      vertex 13.8519 22.7716 3
      vertex 13.3333 22.4944 3
    endloop
  endfacet
  facet normal 0.471396 -0.881922 0
    outer loop
      vertex 13.8519 22.7716 3
      vertex 13.3333 22.4944 0
      vertex 13.8519 22.7716 0
    endloop
  endfacet
  facet normal -0.290288 -0.956939 0
    outer loop
      vertex 27.5853 22.9424 0
      vertex 28.148 22.7716 3
      vertex 27.5853 22.9424 3
    endloop
  endfacet
  facet normal -0.290288 -0.956939 -0
    outer loop
      vertex 28.148 22.7716 3
      vertex 27.5853 22.9424 0
      vertex 28.148 22.7716 0
    endloop
  endfacet
  facet normal 0.95694 0.290285 0
    outer loop
      vertex 12.2284 18.8519 3
      vertex 12.0576 19.4147 0
      vertex 12.0576 19.4147 3
    endloop
  endfacet
  facet normal 0.95694 0.290285 0
    outer loop
      vertex 12.0576 19.4147 0
      vertex 12.2284 18.8519 3
      vertex 12.2284 18.8519 0
    endloop
  endfacet
  facet normal 0.773011 0.634393 0
    outer loop
      vertex 12.8787 17.8787 3
      vertex 12.5056 18.3333 0
      vertex 12.5056 18.3333 3
    endloop
  endfacet
  facet normal 0.773011 0.634393 0
    outer loop
      vertex 12.5056 18.3333 0
      vertex 12.8787 17.8787 3
      vertex 12.8787 17.8787 0
    endloop
  endfacet
  facet normal 0.471396 0.881922 -0
    outer loop
      vertex 13.8519 17.2284 0
      vertex 13.3333 17.5056 3
      vertex 13.8519 17.2284 3
    endloop
  endfacet
  facet normal 0.471396 0.881922 0
    outer loop
      vertex 13.3333 17.5056 3
      vertex 13.8519 17.2284 0
      vertex 13.3333 17.5056 0
    endloop
  endfacet
  facet normal 0.881922 -0.471395 0
    outer loop
      vertex 12.2284 21.148 3
      vertex 12.5056 21.6667 0
      vertex 12.5056 21.6667 3
    endloop
  endfacet
  facet normal 0.881922 -0.471395 0
    outer loop
      vertex 12.5056 21.6667 0
      vertex 12.2284 21.148 3
      vertex 12.2284 21.148 0
    endloop
  endfacet
  facet normal 0.95694 -0.290285 0
    outer loop
      vertex 12.0576 20.5853 3
      vertex 12.2284 21.148 0
      vertex 12.2284 21.148 3
    endloop
  endfacet
  facet normal 0.95694 -0.290285 0
    outer loop
      vertex 12.2284 21.148 0
      vertex 12.0576 20.5853 3
      vertex 12.0576 20.5853 0
    endloop
  endfacet
  facet normal 0.634393 -0.77301 0
    outer loop
      vertex 12.8787 22.1213 0
      vertex 13.3333 22.4944 3
      vertex 12.8787 22.1213 3
    endloop
  endfacet
  facet normal 0.634393 -0.77301 0
    outer loop
      vertex 13.3333 22.4944 3
      vertex 12.8787 22.1213 0
      vertex 13.3333 22.4944 0
    endloop
  endfacet
  facet normal 0 -1 0
    outer loop
      vertex 15 23 0
      vertex 27 23 3
      vertex 15 23 3
    endloop
  endfacet
  facet normal 0 -1 -0
    outer loop
      vertex 27 23 3
      vertex 15 23 0
      vertex 27 23 0
    endloop
  endfacet
  facet normal -0.995185 0.0980165 0
    outer loop
      vertex 29.9424 19.4147 0
      vertex 30 20 3
      vertex 30 20 0
    endloop
  endfacet
  facet normal -0.995185 0.0980165 0
    outer loop
      vertex 30 20 3
      vertex 29.9424 19.4147 0
      vertex 29.9424 19.4147 3
    endloop
  endfacet
  facet normal 0.0980165 0.995185 -0
    outer loop
      vertex 15 17 0
      vertex 14.4147 17.0576 3
      vertex 15 17 3
    endloop
  endfacet
  facet normal 0.0980165 0.995185 0
    outer loop
      vertex 14.4147 17.0576 3
      vertex 15 17 0
      vertex 14.4147 17.0576 0
    endloop
  endfacet
  facet normal -0.956939 -0.290288 0
    outer loop
      vertex 29.9424 20.5853 0
      vertex 29.7716 21.148 3
      vertex 29.7716 21.148 0
    endloop
  endfacet
  facet normal -0.956939 -0.290288 0
    outer loop
      vertex 29.7716 21.148 3
      vertex 29.9424 20.5853 0
      vertex 29.9424 20.5853 3
    endloop
  endfacet
  facet normal -0.995185 -0.0980169 0
    outer loop
      vertex 30 20 0
      vertex 29.9424 20.5853 3
      vertex 29.9424 20.5853 0
    endloop
  endfacet
  facet normal -0.995185 -0.0980169 0
    outer loop
      vertex 29.9424 20.5853 3
      vertex 30 20 0
      vertex 30 20 3
    endloop
  endfacet
  facet normal -0.0980169 -0.995185 0
    outer loop
      vertex 27 23 0
      vertex 27.5853 22.9424 3
      vertex 27 23 3
    endloop
  endfacet
  facet normal -0.0980169 -0.995185 -0
    outer loop
      vertex 27.5853 22.9424 3
      vertex 27 23 0
      vertex 27.5853 22.9424 0
    endloop
  endfacet
  facet normal 0.0980165 -0.995185 0
    outer loop
      vertex 14.4147 22.9424 0
      vertex 15 23 3
      vertex 14.4147 22.9424 3
    endloop
  endfacet
  facet normal 0.0980165 -0.995185 0
    outer loop
      vertex 15 23 3
      vertex 14.4147 22.9424 0
      vertex 15 23 0
    endloop
  endfacet
  facet normal 0.881921 0.471397 0
    outer loop
      vertex 12.5056 18.3333 3
      vertex 12.2284 18.8519 0
      vertex 12.2284 18.8519 3
    endloop
  endfacet
  facet normal 0.881921 0.471397 0
    outer loop
      vertex 12.2284 18.8519 0
      vertex 12.5056 18.3333 3
      vertex 12.5056 18.3333 0
    endloop
  endfacet
  facet normal 0.634393 0.77301 -0
    outer loop
      vertex 13.3333 17.5056 0
      vertex 12.8787 17.8787 3
      vertex 13.3333 17.5056 3
    endloop
  endfacet
  facet normal 0.634393 0.77301 0
    outer loop
      vertex 12.8787 17.8787 3
      vertex 13.3333 17.5056 0
      vertex 12.8787 17.8787 0
    endloop
  endfacet
  facet normal 0 1 -0
    outer loop
      vertex 27 17 0
      vertex 15 17 3
      vertex 27 17 3
    endloop
  endfacet
  facet normal 0 1 0
    outer loop
      vertex 15 17 3
      vertex 27 17 0
      vertex 15 17 0
    endloop
  endfacet
  facet normal -0.881922 -0.471395 0
    outer loop
      vertex 29.7716 21.148 0
      vertex 29.4944 21.6667 3
      vertex 29.4944 21.6667 0
    endloop
  endfacet
  facet normal -0.881922 -0.471395 0
    outer loop
      vertex 29.4944 21.6667 3
      vertex 29.7716 21.148 0
      vertex 29.7716 21.148 3
    endloop
  endfacet
  facet normal -0.77301 -0.634394 0
    outer loop
      vertex 29.4944 21.6667 0
      vertex 29.1213 22.1213 3
      vertex 29.1213 22.1213 0
    endloop
  endfacet
  facet normal -0.77301 -0.634394 0
    outer loop
      vertex 29.1213 22.1213 3
      vertex 29.4944 21.6667 0
      vertex 29.4944 21.6667 3
    endloop
  endfacet
  facet normal -0.634394 -0.77301 0
    outer loop
      vertex 28.6667 22.4944 0
      vertex 29.1213 22.1213 3
      vertex 28.6667 22.4944 3
    endloop
  endfacet
  facet normal -0.634394 -0.77301 -0
    outer loop
      vertex 29.1213 22.1213 3
      vertex 28.6667 22.4944 0
      vertex 29.1213 22.1213 0
    endloop
  endfacet
  facet normal -0.290285 0.95694 0
    outer loop
      vertex 28.148 17.2284 0
      vertex 27.5853 17.0576 3
      vertex 28.148 17.2284 3
    endloop
  endfacet
  facet normal -0.290285 0.95694 0
    outer loop
      vertex 27.5853 17.0576 3
      vertex 28.148 17.2284 0
      vertex 27.5853 17.0576 0
    endloop
  endfacet
  facet normal -0.881921 0.471397 0
    outer loop
      vertex 29.4944 18.3333 0
      vertex 29.7716 18.8519 3
      vertex 29.7716 18.8519 0
    endloop
  endfacet
  facet normal -0.881921 0.471397 0
    outer loop
      vertex 29.7716 18.8519 3
      vertex 29.4944 18.3333 0
      vertex 29.4944 18.3333 3
    endloop
  endfacet
  facet normal -0.773011 0.634393 0
    outer loop
      vertex 29.1213 17.8787 0
      vertex 29.4944 18.3333 3
      vertex 29.4944 18.3333 0
    endloop
  endfacet
  facet normal -0.773011 0.634393 0
    outer loop
      vertex 29.4944 18.3333 3
      vertex 29.1213 17.8787 0
      vertex 29.1213 17.8787 3
    endloop
  endfacet
  facet normal -0.634394 0.77301 0
    outer loop
      vertex 29.1213 17.8787 0
      vertex 28.6667 17.5056 3
      vertex 29.1213 17.8787 3
    endloop
  endfacet
  facet normal -0.634394 0.77301 0
    outer loop
      vertex 28.6667 17.5056 3
      vertex 29.1213 17.8787 0
      vertex 28.6667 17.5056 0
    endloop
  endfacet
  facet normal -0.0980169 0.995185 0
    outer loop
      vertex 27.5853 17.0576 0
      vertex 27 17 3
      vertex 27.5853 17.0576 3
    endloop
  endfacet
  facet normal -0.0980169 0.995185 0
    outer loop
      vertex 27 17 3
      vertex 27.5853 17.0576 0
      vertex 27 17 0
    endloop
  endfacet
  facet normal -0.471395 -0.881922 0
    outer loop
      vertex 28.148 22.7716 0
      vertex 28.6667 22.4944 3
      vertex 28.148 22.7716 3
    endloop
  endfacet
  facet normal -0.471395 -0.881922 -0
    outer loop
      vertex 28.6667 22.4944 3
      vertex 28.148 22.7716 0
      vertex 28.6667 22.4944 0
    endloop
  endfacet
  facet normal -0.956939 0.290288 0
    outer loop
      vertex 29.7716 18.8519 0
      vertex 29.9424 19.4147 3
      vertex 29.9424 19.4147 0
    endloop
  endfacet
  facet normal -0.956939 0.290288 0
    outer loop
      vertex 29.9424 19.4147 3
      vertex 29.7716 18.8519 0
      vertex 29.7716 18.8519 3
    endloop
  endfacet
  facet normal -0.471395 0.881922 0
    outer loop
      vertex 28.6667 17.5056 0
      vertex 28.148 17.2284 3
      vertex 28.6667 17.5056 3
    endloop
  endfacet
  facet normal -0.471395 0.881922 0
    outer loop
      vertex 28.148 17.2284 3
      vertex 28.6667 17.5056 0
      vertex 28.148 17.2284 0
    endloop
  endfacet
endsolid OpenSCAD_Model
